<svg width="117.16mm" height="115.73mm" version="1.1" viewBox="0 0 117.16 115.73" xmlns="http://www.w3.org/2000/svg">
 <g transform="translate(83.596 -66.879)">
  <path fill="#D5C9BE" d="m-28.614 182.58c-2.839 0.0688-6.5881 0.0291-8.3344-0.0873-1.7462-0.11642-4.4847-0.4101-6.0854-0.65087-1.6007-0.24342-3.8629-0.62707-5.0271-0.85196-1.1642-0.22754-3.392-0.762-4.9504-1.1906-1.5584-0.42862-4.0587-1.233-5.5562-1.7912-1.4975-0.55562-3.9714-1.6378-5.5007-2.4051s-3.7306-2.0267-4.8948-2.7966c-1.1642-0.77258-3.1274-2.2093-4.3656-3.1962-1.2382-0.98425-3.683-3.2253-5.4372-4.9768-1.7515-1.7542-3.5719-3.7809-4.0455-4.5059-0.47096-0.72496-0.82285-1.5584-0.78052-1.8521 0.06615-0.45509 0.30427-0.54504 1.6219-0.61384 1.3282-0.0688 1.5187-0.14287 1.3679-0.52916-0.0979-0.24871-0.22754-1.9976-0.2884-3.8894-0.0635-1.8918-0.23548-8.9773-0.38365-15.743-0.14817-6.7654-0.39423-16.56-0.54769-21.767-0.19579-6.6992-0.19315-9.7128 0.0053-10.319 0.1905-0.57414 2.4077-2.9633 6.7019-7.2231 3.5295-3.5031 10.782-10.62 16.118-15.814 6.9903-6.8051 10.025-9.5858 10.848-9.9457 0.62971-0.27253 2.2172-0.74613 3.5269-1.0478 1.3097-0.30428 4.4662-1.0239 7.0115-1.5981 2.5453-0.57414 5.7018-1.2303 7.0115-1.4578 1.3097-0.2249 2.7728-0.41275 3.2491-0.41275 0.4789 0 1.3018 0.18256 1.8336 0.40216 0.52917 0.22225 2.2913 1.7119 3.9105 3.3126 1.6219 1.5981 3.0295 2.8258 3.13 2.7278 0.0979-0.10054 0.17992-1.6457 0.17992-3.4369 0-3.2544 0-3.2544 1.5055-3.6936 1.1192-0.32544 2.1458-0.40481 3.9926-0.30692 2.1749 0.11378 2.5691 0.20903 3.1194 0.762 0.63235 0.62971 0.63235 0.62971 0.381 4.7308-0.14023 2.2569-0.25665 5.1356-0.25929 6.4003-0.0053 1.2647-0.127 2.3733-0.27252 2.4633-0.14552 0.0899-0.2884 0.127-0.3175 0.082-0.0291-0.045-0.11906-2.7596-0.19844-6.0352-0.14552-5.9531-0.14552-5.9531-1.4393-6.0351-0.71173-0.045-1.3917 0.0159-1.5108 0.13493-0.11906 0.11907-0.23812 2.3257-0.26458 4.9001-0.03969 3.9158 0.02381 4.7916 0.37835 5.3366 0.23548 0.35719 1.9262 2.1167 3.7597 3.9105 1.8336 1.7939 3.4449 3.302 3.5798 3.3496 0.14552 0.0529 0.25665-2.2437 0.27252-5.6885 0.01323-3.1776 0.10319-6.4294 0.19844-7.2311 0.15875-1.3335 0.24871-1.4922 1.098-1.905 0.51065-0.24606 2.1775-0.57943 3.7042-0.74083 1.9553-0.20373 3.4846-0.21167 5.1594-0.0185 1.6854 0.1905 2.8046 0.48683 3.8285 1.0107 0.83344 0.42333 1.7092 1.1218 2.0611 1.6457 0.61119 0.90752 0.61119 0.90752 0.42862 14.833-0.18521 13.922-0.18521 13.922 0.94721 15.528 0.889 1.2568 1.1377 1.8521 1.1615 2.757 0.01588 0.635-0.11906 4.5455-0.29898 8.6942s-0.44979 12.83-0.6006 19.296c-0.2196 9.5197-0.20638 11.814 0.06879 12.073 0.18786 0.17727 1.2938 0.52123 2.458 0.76729 1.1642 0.24607 3.4264 0.79904 5.0271 1.2303 1.6007 0.43391 4.8154 1.3917 7.1438 2.1299s4.7995 1.6272 5.4901 1.9764c0.93662 0.4736 1.2568 0.78581 1.2568 1.2303 0 0.32808-0.43656 1.2488-0.97102 2.0452-0.53446 0.79904-1.6589 2.2992-2.5003 3.3338s-2.5188 2.7702-3.7253 3.8576c-1.2091 1.0848-3.1697 2.7093-4.363 3.6063-1.1906 0.89958-3.2491 2.2939-4.572 3.1009-1.3256 0.80698-3.7439 2.1511-5.3763 2.9924-1.6298 0.83873-4.4688 2.0796-6.305 2.7543-1.8336 0.67734-4.7519 1.6484-6.4823 2.1616-1.733 0.51329-4.4847 1.233-6.1198 1.6034-1.6351 0.36777-4.3736 0.90223-6.0828 1.1853-1.7119 0.2831-4.7784 0.69585-6.8157 0.91281-2.0373 0.2196-6.0246 0.45244-8.8635 0.51858zm-0.90223-7.5089c0.03175 0 0.44186-0.68527 0.91017-1.5214 0.46831-0.83608 1.7886-2.4368 2.9342-3.5586 1.5478-1.5134 2.6432-2.3125 4.2677-3.1142 1.2012-0.59266 3.0162-1.2515 4.0349-1.4631 1.0186-0.21432 3.1618-0.39159 4.7625-0.39688 1.6007-5e-3 5.2573-0.12435 8.1227-0.26194 2.8681-0.14023 6.4982-0.4445 8.0698-0.67468 1.5716-0.23284 4.0958-0.71438 5.6092-1.0689 1.5134-0.35719 4.0137-1.016 5.5562-1.4632 1.5425-0.44714 4.2492-1.3891 6.014-2.0928s4.3841-1.8732 5.8208-2.6008c1.4367-0.72496 2.8496-1.4976 3.1406-1.7145 0.29104-0.21961 0.45508-0.47361 0.36512-0.56357-0.09261-0.09-1.5399-0.30162-3.2173-0.46831-2.2357-0.2249-3.5481-0.22754-4.916-0.0159-1.2991 0.20108-3.0136 0.80962-5.6462 2.0108-2.0823 0.94721-4.4397 1.8468-5.2388 2.0002-0.79904 0.15346-2.585 0.39952-3.9687 0.54769-1.3838 0.15081-4.9556 0.45508-7.9375 0.67998-2.9819 0.22489-6.3659 0.53445-7.5168 0.68527-1.1509 0.15081-3.175 0.55827-4.4979 0.90752-1.3229 0.3466-4.2228 1.233-6.4426 1.9658-2.2225 0.7329-4.0984 1.3335-4.1672 1.3335-0.07144 0-0.12965-0.34925-0.12965-0.77523 0-0.73554-0.06879-0.78316-1.3891-0.94456-0.76464-0.0952-4.0084-0.0423-7.2099 0.11377-3.2015 0.1561-6.8633 0.35983-8.1359 0.45244-1.2726 0.0952-2.3151 0.26458-2.3151 0.381 0 0.11377 0.2196 0.27781 0.48683 0.36248 0.26723 0.0847 0.76465 0.44979 1.106 0.81227 0.45508 0.48419 0.51329 0.65616 0.2196 0.65616-0.2196 0-1.7171-0.23812-3.3311-0.52916-1.6113-0.2884-5.2361-1.061-8.0486-1.7145-2.8152-0.65352-6.6728-1.6007-8.5725-2.1008-1.9024-0.50271-4.5217-1.0557-5.8208-1.2303-1.3494-0.17991-3.4449-0.2487-4.8789-0.15875-1.3811 0.0847-3.1247 0.34132-3.8709 0.56357-0.74612 0.22489-1.5002 0.58208-1.6775 0.79375-0.26194 0.3175-0.20902 0.4101 0.29898 0.51858 0.34131 0.0741 2.3469 0.26458 4.4556 0.42598 2.1087 0.16139 5.207 0.52387 6.8792 0.80698 1.6722 0.2831 7.448 1.5928 12.832 2.9104 5.3843 1.315 10.679 2.6908 11.763 3.0559 1.0848 0.36248 3.1089 1.2462 4.4979 1.9632 1.3891 0.71702 3.4687 2.0188 4.6223 2.8945 1.1562 0.87313 2.1272 1.5902 2.159 1.5902zm-16.296-1.0769c0.92604 8e-3 0.92604 8e-3 -0.26458-0.73554-0.65617-0.4101-2.0849-1.2303-3.175-1.823-1.0901-0.59266-2.9977-1.4949-4.236-2.0082-1.2409-0.5133-4.0984-1.4843-6.35-2.1564-2.2542-0.67469-5.4081-1.5081-7.0088-1.8521s-3.6248-0.71173-4.4953-0.81756c-1.4129-0.16934-1.5505-0.14553-1.2462 0.21695 0.18521 0.2249 0.95779 0.65882 1.7171 0.96309 0.75936 0.30162 4.1169 1.487 7.4639 2.6326 3.347 1.1456 7.3951 2.5903 8.9958 3.212 1.6007 0.61913 3.982 1.4049 5.2917 1.7436 1.3097 0.33866 2.7966 0.62177 3.3073 0.62441zm-8.5751-15.063c1.233 0 6.1357-0.23812 10.898-0.52916 4.7599-0.2884 11.454-0.70909 14.875-0.93134 3.4211-0.22225 8.419-0.59002 11.11-0.81756 2.6908-0.23019 5.1012-0.52916 5.3578-0.66675 0.38365-0.20637 0.46567-0.61383 0.46567-2.3574 0-2.0082-0.02646-2.1061-0.59531-2.1061-0.32808 0-3.0242 0.23548-5.9928 0.52123s-5.5007 0.45508-5.6224 0.381c-0.12435-0.0767-0.2249-4.2704-0.22225-9.3186 0-5.0482 0.11112-10.141 0.24606-11.316 0.13758-1.188 0.52917-2.7728 0.88635-3.5719 0.34925-0.78846 1.2171-2.077 1.9288-2.8628 0.82285-0.91017 1.8521-1.6933 2.839-2.1616 0.84931-0.40216 2.122-0.80962 2.8258-0.90752 0.83344-0.11377 1.8362-0.0318 2.884 0.23548 0.88371 0.22754 2.069 0.70379 2.6353 1.061 0.56621 0.35983 1.4049 1.106 1.8653 1.6616 0.46038 0.55563 1.1615 1.6669 1.5558 2.4659 0.71967 1.4552 0.71967 1.4552 0.63235 14.896-0.08731 13.438-0.08731 13.438 1.1906 13.287 0.70379-0.082 3.646-0.38365 6.5405-0.6694 2.8945-0.28839 5.4054-0.64029 5.5801-0.78581 0.22225-0.18521 0.36777-2.2516 0.48948-6.948 0.09525-3.6751 0.2884-11.742 0.42862-17.928 0.14288-6.186 0.32544-13.351 0.40481-15.925 0.14552-4.6805 0.14552-4.6805-6.3818-11.245-3.593-3.6089-10.126-10.374-14.518-15.031-4.3947-4.6567-8.7683-9.1519-9.7234-9.988-0.9525-0.83608-1.7912-1.5214-1.8627-1.5214-0.06879 0-0.19844 0.28046-0.2831 0.62177-0.08731 0.34131-1.3785 1.9315-2.8734 3.5348-1.4949 1.6007-6.8792 7.2443-11.964 12.541-5.0879 5.2943-11.279 11.687-13.758 14.203-4.5111 4.5773-4.5111 4.5773-4.4397 27.252 0.03969 12.472 0.13494 23.183 0.21431 23.802 0.14288 1.1245 0.14288 1.1245 2.3839 1.1245zm-10.938-2.3945c0.39952 0.0106 0.46302-0.25136 0.46302-1.95 0-1.0795-0.07144-2.1511-0.15875-2.3786-0.08996-0.23019-1.5901-1.1562-3.339-2.0585-1.8759-0.97102-3.2755-1.8653-3.4158-2.1854-0.13229-0.29898-0.33602-2.9236-0.45508-5.8341-0.11906-2.9104-0.17198-5.3763-0.11906-5.4769 0.05292-0.10319 1.27 0.52123 2.704 1.3891 1.434 0.86519 2.7384 1.5743 2.9025 1.5743 0.19844 0 0.29369-1.0001 0.29104-3.1088 0-1.7092-0.12435-5.3658-0.27517-8.1254-0.14817-2.757-0.32808-5.0694-0.39423-5.1356-0.06615-0.0688-0.18521-0.0582-0.26458 0.0185-0.07673 0.0794-0.254 1.8309-0.39423 3.892-0.13758 2.0611-0.33073 4.064-0.42862 4.4503-0.17462 0.70115-0.17462 0.70115-0.43392 0.0556-0.14552-0.36248-0.31485-5.3578-0.38894-11.438-0.12965-10.79-0.12965-10.79-2.5453-10.716-2.413 0.0767-2.413 0.0767-2.3204 16.613 0.05821 10.776-0.01852 18.277-0.22225 21.532-0.26723 4.2624-0.25665 5.0509 0.0635 5.371 0.20638 0.20638 2.1511 1.0769 4.3233 1.9368 2.1696 0.85725 4.154 1.5663 4.408 1.5743zm23.265-17.788c-2.5003 0.16669-3.3232 0.14023-3.5322-0.11377-0.18256-0.21696-0.24342-3.1988-0.17992-8.7789 0.05027-4.6487 0.17462-8.5328 0.27517-8.6334 0.0979-0.10054 2.3019-0.34396 4.8948-0.5424 2.5903-0.19579 5.3975-0.36248 6.2336-0.36777 1.5214-0.0106 1.5214-0.0106 1.4975 7.4639-0.01323 4.1116-0.10054 8.0671-0.19844 8.7921-0.17462 1.3176-0.17462 1.3176-2.9528 1.6404-1.5266 0.17727-4.2439 0.42069-6.0378 0.53975zm1.2144-7.4507c1.7066-0.10319 3.1776-0.26723 3.2702-0.36777 0.08996-0.0979 0.24606-0.62442 0.34396-1.1721 0.12965-0.73819 0.07938-1.0345-0.19844-1.1404-0.20638-0.0794-1.7886 0.0132-3.519 0.20109-3.1432 0.3466-3.1432 0.3466-3.2279 1.0954-0.04762 0.41275-0.01588 0.93663 0.07144 1.1615 0.13494 0.3519 0.58473 0.38365 3.2597 0.22225zm17.73-18.965c-1.0583-0.0159-2.1643-0.082-2.4553-0.14817-0.29104-0.0661-0.90223-0.23548-1.3573-0.37571-0.56092-0.17462-1.1721-0.74877-1.8838-1.7701-0.58208-0.83079-1.4552-2.286-1.9394-3.2306-0.7329-1.4288-0.88371-2.0108-0.88635-3.4396 0-1.1933 0.17198-2.0981 0.56356-2.9607 0.30956-0.67998 1.5637-2.585 2.7834-4.2333 1.2224-1.6457 2.8601-3.8603 3.6407-4.9212 0.889-1.2118 1.5743-1.8997 1.8362-1.8494 0.23019 0.045 1.4658 1.4473 2.7437 3.1194 1.2806 1.6722 3.1618 4.2757 4.1831 5.7864 1.1483 1.7039 1.823 2.9607 1.7727 3.3073-0.0635 0.44715-0.34131 0.60061-1.4023 0.77259-0.7276 0.11906-2.1749 0.39158-3.2173 0.60854-1.18 0.24606-1.9553 0.55033-2.0505 0.80169-0.08731 0.22225-0.1561 1.2594-0.15346 2.3019 0.0026 1.0425 0.07673 2.3442 0.16669 2.8892 0.08996 0.54504 0.24606 0.99219 0.34396 0.99219 0.10054 0 0.41275-0.2249 0.69321-0.50006 0.2831-0.27253 1.524-1.6431 2.757-3.0427 1.2356-1.397 2.331-2.5426 2.4342-2.5426 0.10583 0 0.0291 0.5424-0.16933 1.2039-0.20108 0.66145-0.87577 1.8812-1.5002 2.712-0.62706 0.82815-1.6192 2.032-2.2066 2.6723-0.58473 0.64029-1.4499 1.3229-1.9182 1.5214-0.48419 0.20373-1.6828 0.34396-2.7781 0.32544zm0.35983-3.1565c0.0926 8e-3 0.23548-0.254 0.31221-0.58208 0.07937-0.32809 0.22225-3.3338 0.32015-6.6807 0.1561-5.4002 0.13229-6.0246-0.21431-5.5563-0.21431 0.29104-0.76994 1.2541-1.2356 2.1405-0.51065 0.97631-0.96044 2.3574-1.1377 3.5057-0.1614 1.0425-0.42069 1.9103-0.57679 1.9288-0.1561 0.0185-1.3547 0.0503-2.6644 0.0661-1.3097 0.0185-2.4421 0.15082-2.5135 0.29634-0.07144 0.14552 1.1589 0.92075 2.7384 1.7198 1.5796 0.79904 3.3046 1.8362 3.8365 2.3019 0.53181 0.46567 1.0425 0.85196 1.1351 0.8599zm-51.697-1.0478c2.0002 0 4.8286-0.0767 6.2839-0.17198 2.6458-0.16933 2.6458-0.16933 4.8974-2.4448 1.2382-1.2515 3.6804-3.7888 5.424-5.6356 1.7462-1.8494 8.218-8.4931 14.385-14.761 6.1674-6.268 11.15-11.462 11.073-11.538-0.07673-0.0794-2.8019 0.46831-6.0537 1.2144-3.2517 0.74612-6.5088 1.6457-7.2364 1.9976-0.9869 0.47625-4.2519 3.4793-12.832 11.792-6.3315 6.1357-13.324 12.93-15.544 15.097-2.2199 2.1669-4.0349 4.0561-4.0349 4.1963 0 0.15346 1.4764 0.25664 3.638 0.254zm81.529-8.6043c0.13494-0.14023 0.37571-4.0084 0.53446-8.591 0.15875-4.5826 0.2884-9.6599 0.2884-11.279 0-2.831-0.02381-2.9528-0.59531-3.1062-0.32808-0.0873-1.8759-0.16139-3.4396-0.16404-2.8443-3e-3 -2.8443-3e-3 -2.8681 1.7833-0.01323 0.98161-0.11642 4.4635-0.23283 7.7391-0.11642 3.2756-0.29898 6.223-0.40481 6.5537-0.16933 0.51594 0.26458 1.0636 3.138 3.9582 2.1034 2.122 3.4264 3.2676 3.5798 3.1062z" fill-rule="evenodd" />
 </g>
</svg>
