<svg width="113.53mm" height="133.25mm" version="1.1" viewBox="0 0 113.53 133.25" xmlns="http://www.w3.org/2000/svg">
 <g transform="translate(87.004 -82.207)">
  <path d="m-32.744 215.46c-1.2515-0.0291-2.9316-0.0847-3.7306-0.12965-0.79904-0.045-2.585-0.20902-3.9688-0.36777s-3.048-0.41804-3.7042-0.57414c-0.65617-0.15611-1.7542-0.56357-2.4421-0.90753-0.68792-0.34131-1.4552-0.93133-1.7013-1.307-0.37571-0.5715-0.46831-1.6087-0.56885-6.3262-0.11906-5.6409-0.11906-5.6409-0.94456-5.7864-0.45508-0.0794-2.3125-0.33338-4.1328-0.56356-1.8203-0.23019-4.6778-0.72232-6.35-1.0927-1.6722-0.36777-4.9477-1.2991-7.276-2.0638-2.3283-0.7673-5.416-1.9712-6.8633-2.6723-1.4446-0.70379-3.429-1.8838-4.408-2.6194-0.97896-0.73554-2.1431-1.7965-2.5903-2.3601-0.4445-0.56092-0.90223-1.4526-1.0134-1.9844-0.11377-0.52917-0.20638-2.63-0.20638-4.6672 0-3.5295 0.03175-3.7597 0.70115-4.8948 0.38365-0.65617 1.2171-1.606 1.8494-2.114 0.63235-0.508 2.2807-1.5028 3.6645-2.2093s2.5532-1.3203 2.5982-1.3652c0.04763-0.0423-0.70379-0.9525-1.6695-2.0241-0.96308-1.0689-2.4395-2.9554-3.2782-4.1936s-2.0055-3.1432-2.5982-4.2333c-0.59002-1.0901-1.487-2.9951-1.995-4.2333s-1.2356-3.3205-1.6166-4.6302c-0.381-1.3097-0.86519-3.3338-1.0795-4.4979-0.21431-1.1642-0.51329-3.2729-0.6641-4.6858-0.15346-1.4129-0.27517-3.7359-0.27252-5.1594 0.0026-1.4235 0.12171-3.72 0.26458-5.1038s0.50271-3.765 0.80169-5.2917 1.0742-4.3683 1.7198-6.313c0.64558-1.9447 1.9473-5.0774 2.8892-6.9612 0.94192-1.8838 2.3892-4.4582 3.212-5.7256 0.8255-1.2647 2.0055-2.9528 2.6273-3.7544 0.61912-0.80168 2.0029-2.413 3.0718-3.5851 1.0689-1.1721 2.839-2.9501 3.9291-3.9502 1.0901-1.0001 3.0983-2.6458 4.4609-3.6565 1.36-1.0134 3.728-2.54 5.2626-3.3972s3.8735-2.0452 5.1964-2.6432c1.3256-0.59796 3.9582-1.6034 5.8499-2.2331 1.8918-0.63235 4.9265-1.4473 6.7469-1.815 1.8203-0.36512 4.7942-0.80169 6.6146-0.97102 1.9103-0.17727 4.7599-0.23548 6.7469-0.13758 1.8918 0.0926 4.6302 0.33867 6.0854 0.55033 1.4552 0.20902 3.4793 0.56885 4.4979 0.80169 1.0186 0.23019 3.1565 0.84402 4.7493 1.3652 1.5928 0.51858 4.2439 1.5134 5.8896 2.2119 1.6457 0.69586 4.273 2.0241 5.8341 2.9475 1.5637 0.9234 3.9714 2.5215 5.3552 3.5507s3.4766 2.7808 4.654 3.892 3.0242 3.0454 4.101 4.3021c1.0795 1.2541 2.8549 3.6116 3.9502 5.2414 1.0927 1.6272 2.4924 3.9291 3.1089 5.1144 0.61647 1.1827 1.6378 3.4422 2.2728 5.0218 0.63235 1.5769 1.5187 4.2968 1.9685 6.0431 0.44979 1.7462 1.0107 4.4847 1.2462 6.0854 0.25665 1.7568 0.42598 4.6408 0.42598 7.276 3e-3 2.3998-0.13229 5.4372-0.29368 6.7469-0.1614 1.3097-0.47625 3.2147-0.70115 4.2333-0.22225 1.0186-0.62971 2.6273-0.90488 3.5772-0.27516 0.94986-0.97631 2.8972-1.561 4.3312-0.58208 1.434-1.6166 3.5745-2.2966 4.7572-0.68263 1.1827-1.6828 2.7464-2.2225 3.474-0.5424 0.72761-1.4129 1.8574-1.9394 2.5135-0.52652 0.65617-0.95514 1.2726-0.95779 1.3758-3e-3 0.10054 0.80169 0.60589 1.7833 1.1218 0.98161 0.51858 2.458 1.4684 3.2782 2.114 1.0372 0.81492 1.7092 1.614 2.204 2.6247 0.70644 1.4446 0.70908 1.4711 0.62442 6.567-0.0794 4.6752-0.13759 5.207-0.67204 6.2071-0.32015 0.6006-1.307 1.7462-2.1908 2.5453-1.0134 0.91811-2.749 2.0426-4.7069 3.048-1.7066 0.87577-4.2307 2.0108-5.6145 2.5241-1.3838 0.51064-3.7968 1.3018-5.3658 1.7568-1.5663 0.45508-4.5429 1.1695-6.6146 1.5875-2.069 0.42069-5.5483 1.0213-7.7311 1.3388s-4.0878 0.69056-4.2333 0.82815c-0.15081 0.14552-0.32015 2.622-0.39688 5.7785-0.12171 5.0747-0.17727 5.5854-0.68527 6.2627-0.30162 0.40745-1.0954 1.0107-1.7621 1.3414-0.66411 0.33338-2.5744 0.83873-4.2466 1.1245-1.6695 0.28575-4.5561 0.64029-6.4135 0.79111-1.8547 0.15081-4.3974 0.254-5.6515 0.22754zm-1.614-8.726c1.2382 0.0212 3.8629-0.082 5.8367-0.23019 1.9712-0.15081 4.1698-0.41804 4.8842-0.59531 1.0213-0.254 1.3335-0.46302 1.479-0.98425 0.10055-0.36513 0.1958-3.339 0.20902-6.6146 0.0265-5.4002 0.0767-6.0325 0.5424-6.7972 0.2831-0.46302 0.7329-0.95779 1.0001-1.1033 0.26722-0.14288 2.2093-0.45244 4.3127-0.68792 2.1061-0.23812 5.3155-0.66675 7.1358-0.95779 1.8203-0.2884 4.7598-0.88106 6.5352-1.3176 1.7754-0.43391 4.8128-1.3308 6.7469-1.9923 1.9368-0.65881 4.7096-1.7886 6.1648-2.5082 1.4552-0.71966 3.2359-1.7568 3.9582-2.3019 0.71966-0.54504 1.7013-1.5055 2.1828-2.1352 0.64558-0.84931 0.87048-1.4129 0.87048-2.1934 0-0.57679-0.16669-1.3705-0.37306-1.7648-0.20638-0.39158-0.71173-1.0266-1.1245-1.4102-0.41275-0.38364-1.2541-1.0081-1.8706-1.3891s-1.3573-0.69321-1.6484-0.69321-0.73025 0.30957-0.97896 0.69057c-0.40217 0.61118-0.40746 0.71437-0.0476 0.91545 0.2196 0.12436 0.67468 0.4445 1.0081 0.71438 0.41275 0.33602 0.55298 0.65352 0.44185 1.0054-0.09 0.28575-0.7911 0.889-1.5558 1.3441-0.76464 0.45508-2.4051 1.2435-3.6407 1.7515-1.2356 0.508-3.7359 1.4023-5.5562 1.987-1.8203 0.58738-4.9133 1.4288-6.8792 1.8732-1.9658 0.44186-4.9424 0.98954-6.6146 1.2144-1.6722 0.22489-4.9424 0.58737-7.2628 0.80698-2.3204 0.2196-6.7839 0.47096-9.9219 0.56091-3.3629 0.0979-7.53 0.0397-10.163-0.13758-2.4527-0.16669-6.3156-0.53975-8.5804-0.83079-2.2675-0.29104-5.2917-0.76729-6.7231-1.0583-1.4288-0.29105-3.9979-0.9525-5.7044-1.4684-1.7092-0.51858-4.0005-1.2965-5.0906-1.7304-1.0901-0.43656-2.9157-1.3361-4.0534-2.0029-1.95-1.1404-2.1246-1.1933-3.0427-0.91546-0.53446 0.1614-1.7357 0.74348-2.667 1.2912-0.93133 0.55033-1.9129 1.3573-2.1828 1.7939-0.26723 0.43656-0.48683 1.1218-0.48948 1.5214 0 0.46302 0.34396 1.106 0.94721 1.7754 0.62971 0.69585 1.9844 1.5769 4.0349 2.6167 1.6986 0.86254 4.6064 2.0585 6.4638 2.6591 1.8574 0.60325 4.8022 1.442 6.5458 1.868s4.6302 1.0186 6.4135 1.315c1.7833 0.29633 5.08 0.7276 7.3263 0.95779 2.2463 0.23019 4.4053 0.58473 4.7969 0.78846 0.39158 0.20373 0.81756 0.58208 0.94456 0.84137 0.127 0.26194 0.29104 3.3311 0.36248 6.8236 0.13229 6.35 0.13229 6.35 1.4552 6.5061 0.7276 0.0873 2.3336 0.17463 3.5719 0.19844zm3.9688-30.022c2.1114-0.0661 5.3234-0.30163 7.1438-0.52652 1.8203-0.22225 4.4371-0.64559 5.8208-0.94192 1.3838-0.29369 3.8841-0.94985 5.5562-1.4552 1.6722-0.50535 4.3154-1.442 5.8685-2.077 1.5531-0.63764 3.519-1.5425 4.3656-2.0108 0.84667-0.47096 2.5691-1.5505 3.8259-2.4024 1.2568-0.85195 3.3258-2.5241 4.6011-3.7148 1.2726-1.1906 3.1168-3.2041 4.0958-4.4714 0.98161-1.27 2.3812-3.4766 3.1115-4.9054 0.73025-1.4261 1.6986-3.7597 2.1511-5.1832 0.45244-1.4208 1.0186-3.683 1.2568-5.0271 0.27252-1.5478 0.43391-3.9396 0.43656-6.5405 3e-3 -2.2542-0.14023-5.0535-0.32015-6.2177-0.18256-1.1642-0.61912-3.2729-0.97102-4.6858-0.35454-1.4129-0.95514-3.4369-1.3388-4.4979-0.381-1.061-1.3441-3.2385-2.1405-4.8392-0.79375-1.6007-2.2357-4.101-3.1988-5.5562-1.2515-1.8918-2.8469-3.7386-5.5959-6.4849-2.2304-2.2278-4.9001-4.5879-6.3579-5.6197-1.3838-0.9816-4.1804-2.6088-6.2177-3.6169-2.0373-1.0107-5.0138-2.2569-6.6146-2.7728-1.6007-0.51594-3.7782-1.1192-4.8392-1.3414s-3.3549-0.5371-5.0932-0.70379c-2.3707-0.2249-3.9661-0.22225-6.3659 0.0053-1.7621 0.16669-4.3418 0.55033-5.7309 0.85196-1.3917 0.30162-3.6909 0.9525-5.1091 1.4446-1.4208 0.49477-3.6671 1.3705-4.9953 1.9473-1.3282 0.57415-3.6512 1.7833-5.1647 2.6855-1.5134 0.89958-3.6221 2.2966-4.6884 3.1036-1.0636 0.80433-2.5294 1.9923-3.257 2.6379-0.7276 0.64559-2.2569 2.204-3.3972 3.4608-1.1404 1.2568-3.0215 3.7015-4.1804 5.4292-1.1615 1.7277-2.7437 4.408-3.5163 5.9531-0.77523 1.5452-1.8309 4.1248-2.3495 5.7309-0.51858 1.606-1.1827 4.1063-1.4764 5.5562-0.29104 1.4499-0.67204 3.9449-0.84402 5.5457-0.17992 1.6933-0.24342 4.2651-0.15081 6.1489 0.08731 1.7806 0.40217 4.4212 0.69585 5.8711 0.29633 1.4473 0.90752 3.6804 1.36 4.9636 0.45244 1.2806 1.3018 3.2835 1.8838 4.4476 0.58473 1.1642 1.7727 3.1565 2.6432 4.4291 0.94721 1.3864 2.7146 3.3972 4.4185 5.0271 1.8309 1.7515 3.5639 3.1274 4.8816 3.8762 1.1218 0.63764 3.1618 1.6219 4.5323 2.1881 1.3732 0.56357 3.9767 1.4314 5.7891 1.9288 1.8098 0.49741 4.8207 1.1615 6.6887 1.4764s4.6461 0.6694 6.1727 0.78846 4.5032 0.16404 6.6146 0.0952zm21.101-14.727c-2.323 0.10848-3.3734 0.0688-3.3734-0.127 0-0.1561 0.62442-0.83608 1.3891-1.5108 0.76465-0.67469 2.3416-1.6907 3.5057-2.2542 1.1642-0.56621 3.4264-1.4076 5.0271-1.8732 1.6007-0.46302 3.0612-0.96308 3.2438-1.1086 0.26193-0.20638 0.3175-3.0586 0.26458-13.258-0.0688-12.996-0.0688-12.996-5.8896-13.129-3.2014-0.0741-6.0166-0.23019-6.2521-0.34661-0.23812-0.11906-2.8681-2.7966-5.8446-5.9531-2.9739-3.1565-5.887-6.2733-6.4691-6.9294-0.58473-0.65617-1.3785-1.6642-1.7648-2.2437-0.38629-0.57943-0.70379-1.143-0.70379-1.2488 0-0.10848 0.20902-0.127 0.46302-0.0423s-1.2303-1.5372-3.302-3.6036c-2.069-2.0664-3.8603-3.7174-3.9793-3.6671-0.11906 0.0503-4.3312 4.2598-9.3583 9.3557-5.0271 5.0959-9.2816 9.5303-9.4562 9.8557-0.22225 0.41804-0.23548 0.73818-0.04233 1.1007 0.17992 0.33602 0.27517 5.6621 0.27517 15.457 0 8.2206 0.07144 15.134 0.1614 15.364 0.14023 0.37042 1.225 0.41805 9.4721 0.41805 6.8898 0 9.3927-0.082 9.6282-0.3175 0.23548-0.23548 0.3175-3.0268 0.32014-10.914 0-6.1965 0.10848-10.988 0.26193-11.541 0.14552-0.52123 0.5715-1.2356 0.94721-1.5875 0.67998-0.64029 0.70379-0.64294 7.4004-0.72231 4.5694-0.0529 6.8977 0.0159 7.2708 0.21696 0.30163 0.16139 0.78052 0.67204 1.0636 1.1351 0.48154 0.7911 0.51329 1.397 0.51594 9.6255 0 4.8313 0.09 8.8344 0.19843 8.8979 0.10848 0.0635 1.3388-0.0873 2.7332-0.33867 1.397-0.24871 2.6829-0.54504 2.8602-0.65352 0.2487-0.15346 0.3122-2.196 0.27516-8.5275-0.0291-4.5799 0.0529-8.4323 0.18256-8.5619 0.127-0.127 1.3414-0.37306 2.6961-0.54769 1.4288-0.18256 2.5479-0.21431 2.6617-0.0794 0.10583 0.12965 0.14816 4.6646 0.0873 10.078-0.0741 6.866-0.19844 9.9669-0.41275 10.258-0.16669 0.23019-0.95779 0.59267-1.7595 0.80698-0.79904 0.21167-2.8178 0.69586-4.4847 1.0716-1.6695 0.3757-4.527 0.90222-6.35 1.1694-3.0903 0.45244-3.3417 0.45509-3.6671 0.045-0.27252-0.34396-0.30692-1.2885-0.16404-4.3233 0.10054-2.1352 0.10318-4.3101 5e-3 -4.8286-0.17727-0.94457-0.17727-0.94457-3.2755-0.77259-1.7462 0.0979-3.1856 0.29898-3.302 0.46302-0.11377 0.1614-0.17463 3.5983-0.1323 7.6412 0.0635 6.3024 0.0185 7.3872-0.32279 7.6041-0.23812 0.15082-5.7071 0.254-13.568 0.254-10.689 5e-3 -13.338-0.0635-14.057-0.36512-0.48683-0.20373-0.98954-0.52917-1.1165-0.7276-0.127-0.1958-0.29104-7.4401-0.36248-16.1-0.13229-15.743-0.13229-15.743-1.9844-15.875-1.0186-0.0714-1.9976-0.2249-2.1722-0.34132-0.17727-0.11377-0.39952-0.62706-0.49477-1.1404-0.12171-0.64558-0.02911-1.2594 0.30162-1.9923 0.33073-0.73555 3.9132-4.4582 11.721-12.181 6.1833-6.1172 11.898-11.615 12.697-12.218 1.3494-1.0186 1.5716-1.0954 3.0639-1.0769 1.0901 0.01588 2.7226 0.37306 5.0853 1.1113 1.9129 0.59796 3.8047 1.1245 4.2042 1.1695 0.64294 0.0714 0.75935-0.0423 1.0266-0.97632 0.26988-0.94985 0.40481-1.0716 1.352-1.233 0.57679-0.0979 1.8256-0.11377 2.7702-0.03704 0.94456 0.07673 1.987 0.30692 2.3151 0.51064 0.55298 0.3466 0.59532 0.56092 0.59532 3.011 0 2.5612 0.0185 2.6405 0.59531 2.6458 0.32808 3e-3 1.098 0.23284 1.7092 0.51329 0.61383 0.27782 2.3998 1.7357 3.9688 3.2385 1.5716 1.5055 4.7598 4.4609 7.0882 6.5696 2.3283 2.1087 5.1858 4.6514 6.35 5.6541 1.1642 1.0001 2.503 2.2384 2.9766 2.7517 0.70379 0.76729 0.85989 1.1509 0.85989 2.1272 0 0.7329-0.16668 1.3758-0.43391 1.6695-0.38894 0.42863-0.43921 1.8944-0.48419 14.044-0.037 9.8716-0.13758 13.727-0.36513 14.153-0.17198 0.32279-0.8202 0.88371-1.4393 1.2462-0.61648 0.36248-2.3072 1.0874-3.7544 1.6113-1.4446 0.52387-3.765 1.2488-5.1541 1.614-1.741 0.45508-3.5719 0.71173-5.8976 0.81756zm-51.083-7.3607c-0.75406-0.0159-1.8653-0.127-2.4712-0.24606-0.60325-0.11906-1.5901-0.46831-2.1934-0.77523-0.6006-0.30692-1.5346-1.0054-2.0743-1.5478-0.53975-0.54504-1.1536-1.3203-1.3652-1.7277-0.33338-0.635-0.33338-0.76729-0.01058-0.96838 0.20902-0.127 1.1324-0.3122 2.0532-0.41275 0.92075-0.0979 2.2939-0.10054 3.0506-3e-3 0.75671 0.0953 2.0029 0.47625 2.7675 0.84666 0.76464 0.36778 1.6933 1.0663 2.0638 1.5505 0.36777 0.48684 0.74083 1.307 0.82285 1.8256 0.13758 0.84666 0.07937 0.97366-0.55827 1.2171-0.39158 0.14817-1.3282 0.25665-2.0849 0.24077zm1.8891-7.3342c-0.32544 0.41275-0.50535 0.39952-2.5479-0.20108-1.2091-0.3519-2.6723-0.88371-3.2517-1.18-0.57944-0.29633-1.5055-0.98954-2.0611-1.5452-0.55298-0.55298-1.3811-1.7568-1.8389-2.6749-0.46038-0.92075-0.83608-1.9658-0.83608-2.3257 0-0.64823 0.01323-0.65087 2.0505-0.53181 1.2779 0.0767 2.5215 0.33073 3.2994 0.67733 0.68527 0.30427 1.8574 1.1245 2.6009 1.8203 0.74612 0.6985 1.6351 1.7489 1.9791 2.3363 0.34396 0.58473 0.70115 1.5425 0.7911 2.1246 0.10848 0.6985 0.04498 1.2092-0.18521 1.5002zm15.658-1.1033c-3.3126 0-4.2333-0.0794-4.4847-0.381-0.23548-0.28311-0.29633-2.1722-0.23283-7.1676 0.08202-6.3526 0.11906-6.8051 0.6006-7.157 0.38629-0.28311 1.442-0.37571 4.2492-0.37571 2.8099 0 3.8629 0.0926 4.2492 0.37571 0.48948 0.35718 0.51065 0.6985 0.42862 7.2046-0.05027 4.2836-0.18521 6.9532-0.36248 7.1649-0.20373 0.24606-1.3944 0.33602-4.4476 0.33602zm19.78-3.3046c1.5637-0.10583 2.9316-0.24606 3.0401-0.30956 0.10848-0.0661 0.19844-1.6484 0.19844-3.5163 0-2.4765-0.09-3.429-0.33073-3.5163-0.18256-0.0662-1.5822-0.0476-3.1088 0.037-2.7781 0.15875-2.7781 0.15875-2.8522 3.4502-0.0423 1.8124-0.0106 3.4634 0.0688 3.6698 0.11906 0.31221 0.64558 0.34396 2.9845 0.18521zm-18.976-0.13494c1.1933 0 1.8759-0.1217 2.0823-0.36777 0.20373-0.24606 0.28046-1.4526 0.23019-3.638-0.07408-3.2702-0.07408-3.2702-1.8838-3.3496-1.106-0.0476-1.9553 0.0423-2.1828 0.23018-0.2831 0.23548-0.37306 1.0848-0.37306 3.5428 0 1.7754 0.07937 3.3099 0.17727 3.4052 0.09525 0.0979 0.97367 0.17727 1.95 0.17727zm8.6228-19.844c-1.9579 0-3.0798-0.10848-3.2888-0.3175-0.22225-0.22225-0.3175-1.6828-0.3175-4.8763 0-3.7915 0.06879-4.6276 0.4154-4.9742 0.29633-0.29369 0.96573-0.42334 2.3151-0.43921 1.0451-0.0132 2.495-5e-3 3.2226 0.0159 0.87577 0.0265 1.434 0.18521 1.6536 0.47096 0.23548 0.30691 0.33073 1.7568 0.33073 5.0191 0 4.5852 0 4.5852-0.67998 4.8419-0.37306 0.14287-2.0161 0.25929-3.6512 0.25929zm0.94721-2.9422c0.98425 0.0265 1.307-0.0767 1.5214-0.4789 0.15081-0.2831 0.27252-1.2065 0.26987-2.0505 0-0.84667-0.10054-1.696-0.22225-1.8838-0.15081-0.24077-0.73554-0.32015-1.9103-0.26459-1.6933 0.0794-1.6933 0.0794-1.8891 1.4023-0.10583 0.7276-0.12435 1.7039-0.03969 2.1696 0.08467 0.46831 0.3466 0.89694 0.58738 0.96044 0.24077 0.0635 0.99748 0.12964 1.6828 0.14552zm14.097-13.462c0.0503 0 0.28046-0.0714 0.51065-0.1614 0.30956-0.11906 0.41804-0.52917 0.41804-1.569 0-0.92604-0.14288-1.5478-0.4154-1.823-0.23018-0.22754-0.52123-0.41539-0.65352-0.41539-0.12964 0-0.35983 0.23018-0.508 0.51064-0.15081 0.28311-0.27516 0.98954-0.27516 1.569 0 0.60854 0.17727 1.233 0.41539 1.4737 0.23019 0.22754 0.45773 0.4154 0.508 0.4154zm-40.267-8.4825c0.26194 0.0079 1.6907-0.68262 3.175-1.5372 1.4843-0.8546 3.5322-1.9711 4.5508-2.4818 1.0186-0.51064 3.265-1.4843 4.99-2.1643 1.7277-0.68262 4.6434-1.6563 6.4823-2.1643 1.8389-0.508 5.0112-1.2039 7.0485-1.5478 2.0373-0.34131 4.5985-0.70908 5.6885-0.81227 1.0901-0.10583 2.2225-0.2831 2.5135-0.39423 0.49742-0.19315 0.48684-0.22225-0.16404-0.47625-0.381-0.15081-2.286-0.47625-4.2333-0.72496-2.4553-0.31221-4.5111-0.40746-6.7151-0.30692-1.7462 0.07673-4.3841 0.39158-5.8632 0.69585s-3.8021 0.91281-5.1594 1.352c-1.36 0.43921-3.8126 1.4605-5.4504 2.2701-1.6404 0.81227-3.9026 2.1299-5.0271 2.9316-1.1271 0.80169-2.5532 1.9473-3.1724 2.5453-0.61912 0.59796-1.1245 1.1668-1.1245 1.2621s0.44715 0.48154 0.99219 0.8546c0.54504 0.37571 1.2065 0.69056 1.4684 0.6985z" fill-rule="evenodd"/>
 </g>
</svg>
